<?xml version="1.0" standalone="no"?>
<!DOCTYPE svg PUBLIC "-//W3C//DTD SVG 20010904//EN"
 "http://www.w3.org/TR/2001/REC-SVG-20010904/DTD/svg10.dtd">
<svg version="1.0" xmlns="http://www.w3.org/2000/svg"
 width="4500.000000pt" height="4500.000000pt" viewBox="0 0 4500.000000 4500.000000"
 preserveAspectRatio="xMidYMid meet">

<g transform="translate(0.000000,4500.000000) scale(0.100000,-0.100000)"
fill="#fff" stroke="none">
<path d="M10910 35395 l0 -1245 10963 -2 10962 -3 3 -7292 2 -7293 -5167 -2
-5168 -3 0 -1245 0 -1245 6400 -2 c3520 -2 6406 1 6413 5 10 7 12 1931 12
9778 0 5373 0 9775 0 9782 0 9 -2449 12 -12210 12 l-12210 0 0 -1245z"/>
<path d="M11615 28088 c-3 -7 -4 -4398 -3 -9758 l3 -9745 1248 -3 1247 -2 0
8510 0 8510 7380 0 7380 0 -2 1248 -3 1247 -8623 3 c-6893 2 -8624 0 -8627
-10z"/>
</g>
</svg>
