<svg width="64" height="64" fill="none" xmlns="http://www.w3.org/2000/svg"><path d="M24.202 35.978c7.929-1.269 12.19-2.017 12.422-2.05a15.57 15.57 0 01-1.19.26c-.957.131-1.916.391-2.808.782-.892.39-1.75.878-2.51 1.464-1.586 1.203-2.577 2.18-4.956 4.814-.099.098-.198.195-.264.326-4.56 5.074-13.48 4.489-13.48 4.489l2.049-3.611v-.033l.033-.032.165-.26 8.094-14.152c2.015-3.545 5.815-5.725 9.944-5.725h5.716c-2.379 2.668-3.37 3.643-4.956 4.815a12.015 12.015 0 01-2.51 1.463c-.893.39-1.85.651-2.809.781-.396.065-.793.13-1.189.26a8.638 8.638 0 00-5.484 4.717l-1.52 3.351c1.42-.748 3.139-1.334 5.253-1.659z" fill="url(#paint0_linear)"/><path d="M36.333 34.167c-.392.095-.783.191-1.175.255-.947.128-1.894.383-2.776.765a11.9 11.9 0 00-2.482 1.436c-1.567 1.18-2.547 2.137-4.898 4.72-.098.096-.196.191-.261.319-4.507 4.975-13.324 4.401-13.324 4.401l2.024-3.54v-.032l.033-.032c.033-.064.098-.16.163-.255.523-.83 2.058-2.902 5.225-4.433 1.405-.67 3.103-1.244 5.16-1.595 7.87-1.244 12.083-1.977 12.311-2.01z" fill="url(#paint1_linear)"/><path d="M49.333 22.25l-8.12 13.883c-2.023 3.479-5.835 5.617-9.978 5.617H25.5c2.387-2.617 3.381-3.575 4.972-4.723a12.123 12.123 0 012.52-1.437 10.82 10.82 0 012.817-.766c.398-.063.796-.127 1.193-.255a8.614 8.614 0 005.503-4.628l1.525-3.287c3.215-1.5 4.773-3.574 5.303-4.404z" fill="url(#paint2_linear)"/><path d="M24.8 36.29c8.053-1.314 12.382-2.09 12.617-2.123-.403.1-.806.202-1.208.27a10.6 10.6 0 00-2.852.808 12.14 12.14 0 00-2.55 1.517c-1.611 1.247-2.618 2.258-5.034 4.988H14.667l2.114-3.775c1.409-.741 5.872-1.348 8.02-1.685z" fill="url(#paint3_linear)"/><path d="M51.5 17.937l-2.027 3.54v.032l-.033.032-.163.255c-.524.83-2.06 2.902-5.232 4.433-1.406.67-3.107 1.244-5.167 1.595-7.847 1.244-12.066 1.977-12.294 2.01a15.47 15.47 0 011.177-.256 10.572 10.572 0 002.78-.765 11.919 11.919 0 002.484-1.435c1.57-1.18 2.55-2.137 4.905-4.72.098-.096.196-.192.262-.32 4.48-4.975 13.308-4.401 13.308-4.401z" fill="url(#paint4_linear)"/><path d="M51.5 17.938l-2.099 3.69v.034l-.034.033a3.065 3.065 0 01-.169.266c-.542.865-2.133 3.026-5.417 4.622l1.693-3.724h-8.057c.101-.1.203-.2.27-.332 4.672-5.188 13.813-4.59 13.813-4.59z" fill="url(#paint5_linear)"/><path d="M48.93 22.74a2.59 2.59 0 00.404-.49l-.303.49-4.507 7.743c-.302.654-.84 1.307-1.48 1.863-1.647 1.503-3.8 2.385-6.053 2.646-2.724.294-7.433.85-12.68 1.666-6.994 1.111-9.954 4.966-10.727 6.175.235-.392 3.834-6.632 5.448-9.377 1.412-2.45 3.666-4.084 6.524-4.378h.135c1.311-.13 3.565-.392 6.154-.816 6.222-1.013 14.462-2.875 17.085-5.522z" fill="url(#paint6_linear)"/><path d="M49.566 22.25a2.31 2.31 0 01-.233.383l.233-.383z" fill="url(#paint7_linear)"/><path d="M48.572 22.662c-2.595 2.586-10.745 4.406-16.865 5.395.333-.191.665-.415.965-.638 1.596-1.181 2.594-2.14 4.99-4.725h10.91v-.032z" fill="url(#paint8_linear)"/><defs><linearGradient id="paint0_linear" x1="20.625" y1="26.874" x2="27.971" y2="41.291" gradientUnits="userSpaceOnUse"><stop stop-color="#44C3D5"/><stop offset=".868" stop-color="#092D58"/></linearGradient><linearGradient id="paint1_linear" x1="25.311" y1="43.825" x2="22.336" y2="35.702" gradientUnits="userSpaceOnUse"><stop stop-color="#44C3D5"/><stop offset=".991" stop-color="#092D58"/></linearGradient><linearGradient id="paint2_linear" x1="40.996" y1="37.676" x2="28.254" y2="16.019" gradientUnits="userSpaceOnUse"><stop stop-color="#44C3D5"/><stop offset=".868" stop-color="#092D58"/></linearGradient><linearGradient id="paint3_linear" x1="29.87" y1="50.913" x2="24.565" y2="33.09" gradientUnits="userSpaceOnUse"><stop stop-color="#44C3D5"/><stop offset=".789" stop-color="#092D58"/></linearGradient><linearGradient id="paint4_linear" x1="26.536" y1="23.873" x2="51.486" y2="23.873" gradientUnits="userSpaceOnUse"><stop stop-color="#44C3D5"/><stop offset=".868" stop-color="#092D58"/></linearGradient><linearGradient id="paint5_linear" x1="41.779" y1="17.011" x2="48.081" y2="25.309" gradientUnits="userSpaceOnUse"><stop stop-color="#44C3D5"/><stop offset="1" stop-color="#092D58"/></linearGradient><linearGradient id="paint6_linear" x1="28.417" y1="31.679" x2="48.178" y2="37.691" gradientUnits="userSpaceOnUse"><stop stop-color="#44C3D5"/><stop offset=".868" stop-color="#092D58"/></linearGradient><linearGradient id="paint7_linear" x1="49.443" y1="22.444" x2="49.513" y2="22.466" gradientUnits="userSpaceOnUse"><stop stop-color="#44C3D5"/><stop offset=".868" stop-color="#092D58"/></linearGradient><linearGradient id="paint8_linear" x1="32.794" y1="13.319" x2="41.461" y2="28.752" gradientUnits="userSpaceOnUse"><stop stop-color="#44C3D5"/><stop offset=".868" stop-color="#092D58"/></linearGradient></defs></svg>